<svg width="24" height="25" viewBox="0 0 24 25" fill="none" xmlns="http://www.w3.org/2000/svg">
<circle cx="12" cy="12.5" r="12" fill="#FFF1F0"/>
<path d="M12 7.5C9.24 7.5 7 9.74 7 12.5C7 15.26 9.24 17.5 12 17.5C14.76 17.5 17 15.26 17 12.5C17 9.74 14.76 7.5 12 7.5ZM12 16.5C9.79 16.5 8 14.71 8 12.5C8 11.575 8.315 10.725 8.845 10.05L14.45 15.655C13.775 16.185 12.925 16.5 12 16.5ZM15.155 14.95L9.55 9.345C10.225 8.815 11.075 8.5 12 8.5C14.21 8.5 16 10.29 16 12.5C16 13.425 15.685 14.275 15.155 14.95Z" fill="#E02020"/>
</svg>
